<svg xmlns="http://www.w3.org/2000/svg" viewBox="0 0 194 194">
    <path d="M97,0a97,97,0,1,0,97,97A97,97,0,0,0,97,0Zm57.954,103.916-36.739,36.732a11.028,11.028,0,0,1-7.378,2.953,10.663,10.663,0,0,1-7.5-3.068,9.935,9.935,0,0,1-3.119-7.137,10.632,10.632,0,0,1,3.119-7.653l18.758-18.759h-75.6a10.569,10.569,0,0,1,0-21.138h75.813L103.548,67.088a9.934,9.934,0,0,1-3.12-7.137,10.636,10.636,0,0,1,3.12-7.653,9.937,9.937,0,0,1,7.137-3.119,10.647,10.647,0,0,1,7.653,3.119l36.616,36.617a10.7,10.7,0,0,1,0,15Z"/>
</svg>
