<svg xmlns="http://www.w3.org/2000/svg" viewBox="0 0 7.939 7.939">
    <path d="M3.97,0A1.062,1.062,0,0,0,2.911,1.058a1.027,1.027,0,0,0,.036.256l-1.119.61a1.054,1.054,0,1,0,.29.722,1.042,1.042,0,0,0-.036-.257L3.2,1.779a1.045,1.045,0,0,0,1.538,0l1.119.61a1.027,1.027,0,0,0-.036.256,1.069,1.069,0,1,0,.289-.721l-1.119-.61a1.042,1.042,0,0,0,.036-.257A1.062,1.062,0,0,0,3.97,0ZM3.705,2.645a.8.8,0,0,0-.793.8v3.7a.8.8,0,0,0,.793.8h.529a.8.8,0,0,0,.794-.795v-3.7a.8.8,0,0,0-.794-.8ZM.8,4.233A.8.8,0,0,0,0,5.026V7.144a.8.8,0,0,0,.8.8h.529a.8.8,0,0,0,.793-.795V5.026a.8.8,0,0,0-.793-.793Zm5.82,0a.8.8,0,0,0-.793.793V7.144a.8.8,0,0,0,.793.8h.53a.8.8,0,0,0,.792-.795V5.026a.8.8,0,0,0-.792-.793Z"/>
</svg>
